<?xml version="1.0" encoding="utf-8"?>
<!-- Generator: Adobe Illustrator 24.0.2, SVG Export Plug-In . SVG Version: 6.00 Build 0)  -->
<svg version="1.1" id="Layer_1" xmlns="http://www.w3.org/2000/svg" xmlns:xlink="http://www.w3.org/1999/xlink" x="0px" y="0px"
	 viewBox="0 0 300 100" style="enable-background:new 0 0 300 100;" xml:space="preserve">
<style type="text/css">
	.st0{fill:#FFFFFF;}
	.st1{fill:none;}
	.st2{font-family:'FrenchScriptMT';}
	.st3{font-size:24px;}
</style>
<g>
	<g>
		<path class="st0" d="M85.59,4.12c67.92,0,135.71,0,203.53,0c0,19.15,0,38.31,0,57.5c-67.81,0-135.65,0-203.53,0
			C85.59,42.5,85.59,23.35,85.59,4.12z M211.59,52.85c3.62-0.6,7.13-1.61,10.64-1.64c4.23-0.04,8.48,0.76,12.72,1.16
			c3.13,0.3,5.12-1.07,5.42-3.65c0.31-2.68-1.71-5.07-4.71-5.3c-1.67-0.13-3.38,0.01-5.04,0.24c-6.21,0.85-12.42,1.87-18.6-1.09
			c0-0.37-0.02-1.04,0-1.71c0.09-2.19-0.95-3-2.96-2.98c-9.56,0.09-19.13,0.18-28.7,0.13c-10.29-0.06-20.57-0.37-30.86-0.38
			c-4.63,0-4.63,0.21-5.66,4.84c-0.03,0.14-0.19,0.26-0.06,0.09c-5.05,1.89-9.83,1.64-14.73,0.5c-2.79-0.65-5.76-0.65-8.64-0.64
			c-2.78,0.01-4.08,1.53-4.11,4.2c-0.04,3.07,1.43,5.07,4.1,5.24c1.92,0.13,3.86,0.08,5.78-0.08c5.95-0.5,11.98-2.16,17.84,2.17
			c0.01,0.04,0.18,0.78,0.3,1.52c0.29,1.67,1.18,2.46,2.83,2.46c21.05,0.03,42.1,0.09,63.15,0.13c0.44,0,0.89-0.2,1.28-0.29
			C211.59,56.3,211.59,54.96,211.59,52.85z M203.86,15.08c-1.78,0.92-3.2,1.29-4.14,2.21c-2.65,2.61-5.72,3.81-9.29,4.12
			c-1.39,0.12-2.73,0.97-4.1,1.49c0.08,0.21,0.16,0.42,0.24,0.64c4.53-1.61,9.19-2.64,13.73-0.6c2.35,1.05,4.32,3.08,6.37,4.79
			c2.58,2.14,4.99,4.52,7.65,6.55c0.8,0.61,2.18,0.38,3.29,0.53c-0.31-1.19-0.27-2.78-1-3.5c-1.97-1.95-4.21-3.6-6.44-5.23
			c-1.21-0.88-2.61-1.45-3.93-2.16c6.7,1.14,13.63,0.33,19.9,3.45c0.48,0.24,1.13,0.36,1.64,0.23c0.81-0.19,1.97-0.44,2.22-1.02
			c0.25-0.58-0.25-1.79-0.76-2.42c-2.07-2.59-6.69-2.99-9.52-0.98c-0.45,0.32-0.95,0.86-1.4,0.82c-3.61-0.27-7.21-0.66-10.81-1.02
			c0-0.3,0.01-0.6,0.01-0.9c0.73-0.1,1.46-0.19,2.19-0.31c2.77-0.46,5.56-0.8,8.28-1.46c1.56-0.38,3.31-1.32,2.56-3.5
			c-0.7-2.05-2.6-1.68-4.15-1.27c-1.14,0.3-2.25,0.91-3.27,1.56c-1.51,0.96-2.89,2.15-4.39,3.11c-3.13,2-6.39,2.09-9.87,0.58
			C200.58,19.07,203.74,19.17,203.86,15.08z M152.03,22.38c-2.15,0-4.47,0.54-6.41-0.13c-2.74-0.95-5.12-3-7.8-4.21
			c-1.9-0.86-4.04-1.46-6.09-1.51c-1.57-0.03-2.06,1.63-1.1,2.97c0.62,0.86,1.73,1.62,2.73,1.85c2.58,0.59,5.22,0.85,7.84,1.26
			c0.77,0.12,1.54,0.3,2.3,0.46c-0.01,0.28-0.02,0.55-0.04,0.83c-3.63,0.35-7.26,0.72-10.89,1.01c-0.39,0.03-0.83-0.39-1.21-0.67
			c-2.47-1.83-5.13-1.86-7.76-0.62c-1.51,0.71-3.4,1.9-2.49,3.89c0.35,0.76,2.76,0.52,4.24,0.6c0.52,0.03,1.04-0.44,1.59-0.55
			c5.83-1.13,11.66-2.23,17.49-3.34c0.06,0.23,0.12,0.46,0.17,0.69c-1.54,0.84-3.24,1.46-4.6,2.55c-2.32,1.88-4.47,4.01-6.58,6.15
			c-0.35,0.35-0.39,1.6-0.08,1.95c0.37,0.41,1.32,0.52,1.92,0.36c0.83-0.22,1.66-0.71,2.31-1.29c2.7-2.39,5.26-4.97,8.02-7.28
			c1.72-1.44,3.57-2.95,5.61-3.7c4.44-1.64,8.92-0.75,13.41,0.46c-1.68-0.93-3.44-1.7-5.28-2c-2.65-0.45-5.07-0.97-7.09-3.19
			c-1.17-1.28-3.04-1.84-5.07-2.98C147.17,20.17,150.54,19.96,152.03,22.38z M177.25,21.96c0-2.41,0.18-4.12-0.08-5.74
			c-0.13-0.79-1.09-1.43-1.67-2.14c-0.45,0.78-1.21,1.52-1.3,2.34c-0.2,1.85-0.06,3.74-0.06,5.72c-1.32-0.74-2.45-1.63-3.72-1.99
			c-0.84-0.24-1.87,0.27-2.81,0.44c0.57,0.89,0.96,2.16,1.75,2.58c1.51,0.8,3.24,1.11,4.77,1.59c-1.03,1.66-2.16,3.09-2.83,4.73
			c-0.31,0.77,0.27,1.94,0.45,2.93c0.95-0.25,2.13-0.2,2.79-0.8c1.15-1.05,1.98-2.49,2.94-3.76c0.78,1.06,1.37,2.25,2.29,2.99
			c0.76,0.61,1.9,0.68,2.88,0.99c-0.01-1.08,0.32-2.35-0.1-3.21c-0.77-1.59-1.99-2.95-2.85-4.17c1.22-1.52,2.42-2.77,3.29-4.23
			c0.37-0.61,0.04-1.68,0.03-2.55c-0.77,0.2-1.7,0.17-2.27,0.64C179.62,19.21,178.71,20.39,177.25,21.96z"/>
		<path d="M211.59,52.85c0,2.12,0,3.45,0,4.94c-0.4,0.09-0.84,0.29-1.28,0.29c-21.05-0.04-42.1-0.1-63.15-0.13
			c-1.65,0-2.54-0.79-2.83-2.46c-0.13-0.74-0.3-1.48-0.3-1.52c-5.85-4.33-11.88-2.68-17.84-2.17c-1.92,0.16-3.86,0.21-5.78,0.08
			c-2.67-0.18-4.14-2.17-4.1-5.24c0.03-2.67,1.33-4.19,4.11-4.2c2.88-0.01,5.85-0.01,8.64,0.64c4.9,1.14,9.68,1.39,14.73-0.5
			c-0.14,0.17,0.03,0.06,0.06-0.09c1.03-4.63,1.03-4.84,5.66-4.84c10.29,0.01,20.57,0.32,30.86,0.38c9.56,0.05,19.13-0.04,28.7-0.13
			c2.01-0.02,3.04,0.79,2.96,2.98c-0.03,0.67,0,1.34,0,1.71c6.19,2.96,12.39,1.94,18.6,1.09c1.67-0.23,3.37-0.36,5.04-0.24
			c3,0.23,5.02,2.61,4.71,5.3c-0.3,2.58-2.29,3.95-5.42,3.65c-4.24-0.4-8.48-1.21-12.72-1.16
			C218.72,51.24,215.21,52.25,211.59,52.85z M194.03,56.58c0.28,0,0.56,0,0.83,0c0.16,0,0.31,0,0.47,0.01c0.32,0,0.65,0,0.97-0.01
			c0.33-0.16,0.65-0.32,0.98-0.49c0.59,0.15,1.46,0.63,1.72,0.38c0.97-0.93,1.75-2.08,3.11-3.81c-1.86,0.38-3.03,0.63-4.2,0.87
			c-0.95,0.02-1.9,0.03-2.85,0.05c-1.03-0.78-2-1.27-2.43,0.61c0.02,0.12,0.03,0.24,0.05,0.36c-0.6,0.84-1.19,1.69-2.14,3.03
			c0.89-0.57,1.27-0.82,1.64-1.06c0.47,0.01,0.95,0.02,1.42,0.02C193.74,56.56,193.88,56.57,194.03,56.58z M153.1,56.05
			c0.23,0.01,0.45,0.03,0.68,0.04c0.24,0.01,0.48,0.03,0.72,0.04c0.31,0.15,0.62,0.3,0.94,0.46c0.2,0,0.4-0.01,0.6-0.01
			c0.27,0.01,0.54,0.01,0.8,0.02c0.22-0.19,0.43-0.38,0.65-0.58l-0.08,0.07c0.17-0.01,0.34-0.03,0.51-0.04c2.16,0,4.32,0,6.48,0
			c0.27,0,0.54-0.01,0.82-0.01l-0.06,0.08c0-0.29,0.01-0.58,0.01-0.87c-2.31-0.18-4.61-0.36-6.92-0.53
			c-0.17-0.07-0.35-0.14-0.52-0.21c-0.27,0.19-0.54,0.39-0.81,0.58c0,0,0.1-0.08,0.1-0.08c-0.24,0-0.49,0-0.73,0
			c-0.23-0.02-0.46-0.05-0.69-0.07c-0.3-0.12-0.61-0.24-0.91-0.36c-1.41-0.55-2.82-1.11-3.71-1.46c8.42,0,17.44,0,26.71,0
			c-0.32,0.44-0.52,0.66-0.67,0.92c-0.15,0.26-0.25,0.56-0.37,0.85c-0.13,0.23-0.26,0.47-0.4,0.7l0.02-0.09c0,0.2,0,0.4,0,0.6
			l-0.04-0.08c0.25,0.19,0.49,0.38,0.74,0.57c0.26-0.31,0.51-0.62,0.77-0.93c-0.11-0.26-0.23-0.53-0.34-0.79
			c1.31-0.32,2.63-0.64,3.89-0.94c0.33,1.13,0.62,2.16,0.98,3.39c0.87-0.48,1.48-0.82,2.09-1.15c0,0-0.03-0.08-0.03-0.08
			c0.32,0.26,0.63,0.53,0.95,0.79c0.35-0.59,1.82-0.91,0.41-1.91l0.04,0.02c0.82-0.58,1.64-1.15,2.72-1.92
			c-1.04-0.08-1.84-0.13-2.64-0.19c0.01-0.21,0.01-0.41,0.02-0.62c6.02,0,12.04-0.04,18.06,0.06c0.65,0.01,1.3,0.79,1.95,1.21
			c-0.09-0.02-0.17-0.05-0.25-0.08c-0.2,0-0.4,0.01-0.6,0.01c-0.26,0.19-0.52,0.39-0.78,0.58l0.08-0.09
			c-0.85,0.89-1.71,1.77-2.56,2.66c0.1,0.09,0.21,0.18,0.31,0.27c0.27-0.13,0.55-0.25,0.82-0.38c0.72-0.13,1.44-0.25,2.16-0.38
			l-0.06-0.05c0.25-0.19,0.5-0.39,0.75-0.58c0.17,0.02,0.34,0.03,0.51,0.05c0.16-0.01,0.31-0.01,0.47-0.01
			c0.17-0.01,0.34-0.02,0.51-0.03c0.47-0.1,0.94-0.21,1.41-0.31c1.86,0.08,2.22-1.3,2.31-2.78c0.21-3.63,0.3-7.28,0.52-10.91
			c0.12-2-0.44-2.88-2.55-2.88c-18.78,0.07-37.55,0.05-56.33,0.05c-2.18,0-4.35,0-6.16,0c0,2.97-0.18,5.45,0.05,7.88
			c0.25,2.57,0.89,5.1,1.36,7.64c-0.15,0.12-0.29,0.23-0.44,0.35c-0.19,0.24-0.38,0.48-0.57,0.71l0,0.07
			c0.16,0.4,0.32,0.81,0.48,1.21c0.31-0.16,0.62-0.31,0.93-0.47c0.2-0.19,0.4-0.39,0.6-0.58l-0.09,0.09
			c0.17-0.03,0.34-0.05,0.51-0.08c1.44-0.25,2.89-0.51,4.33-0.76c0,0-0.06,0.22-0.06,0.22c-0.14,0.1-0.28,0.19-0.42,0.29
			c0.02,0.28,0.04,0.56,0.06,0.84c-0.09,0.11-0.18,0.22-0.27,0.32C152.95,56.3,153.02,56.17,153.1,56.05z M139.59,49.96
			c0.28,0.15,0.56,0.3,0.85,0.45c0.19-0.1,0.37-0.2,0.56-0.3c0.83-0.14,1.65-0.27,2.47-0.41c0-2,0-3.83,0-5.96
			c-2.44,0.02-3.6,1.87-4.97,3.35c0.22-0.79,0.44-1.58,0.65-2.35c-1.81,0-3.63,0.16-5.41-0.03c-3.81-0.42-7.6-1.18-11.42-1.5
			c-1.58-0.14-3.21,0.48-4.73,0.73c0.79,2.43,1.36,4.21,1.93,5.99c0.03,0.11,0.06,0.21,0.09,0.32c0.01-0.12,0.02-0.24,0.03-0.35
			c2.77-0.61,5.49-1.55,8.38-0.55c0.64,0.22,1.47-0.15,2.21-0.26c2.06-0.33,4.46-1.53,6.07-0.8c2.04,0.93,1.8-0.29,2.25-1.28
			c0.62,0.81,1.24,1.61,1.86,2.42C140.14,49.61,139.87,49.79,139.59,49.96z M224.94,49.07c0.85,0.5,1.27,0.95,1.69,0.96
			c1.98,0.05,3.97,0.12,5.93-0.08c1.56-0.16,3.08-0.66,4.61-1.07c1.91-0.51,0.76-2.12,0.8-3.17c0.02-0.39-1.23-1.18-1.92-1.2
			c-1.99-0.05-3.99,0.27-5.99,0.31c-4.46,0.08-8.92,0.18-13.37,0.04c-1.48-0.05-2.94-0.85-4.41-1.3c-0.25,0.22-0.49,0.44-0.74,0.66
			c0.43,1.32,0.5,3.24,1.37,3.83c1.26,0.85,3.1,0.88,4.71,1c1.48,0.12,2.99-0.15,4.48-0.16C223.28,48.89,224.45,49.04,224.94,49.07z
			"/>
		<path d="M203.86,15.08c-0.12,4.08-3.28,3.99-4.97,5.71c3.48,1.51,6.74,1.42,9.87-0.58c1.51-0.96,2.88-2.15,4.39-3.11
			c1.02-0.65,2.13-1.26,3.27-1.56c1.55-0.41,3.44-0.78,4.15,1.27c0.75,2.18-1,3.12-2.56,3.5c-2.72,0.67-5.52,1-8.28,1.46
			c-0.73,0.12-1.46,0.21-2.19,0.31c0,0.3-0.01,0.6-0.01,0.9c3.6,0.35,7.2,0.74,10.81,1.02c0.45,0.03,0.95-0.51,1.4-0.82
			c2.84-2.01,7.45-1.6,9.52,0.98c0.51,0.63,1.01,1.84,0.76,2.42c-0.25,0.59-1.42,0.83-2.22,1.02c-0.51,0.12-1.16,0.01-1.64-0.23
			c-6.28-3.12-13.21-2.31-19.9-3.45c1.32,0.71,2.72,1.28,3.93,2.16c2.23,1.62,4.48,3.28,6.44,5.23c0.73,0.72,0.69,2.31,1,3.5
			c-1.11-0.15-2.49,0.08-3.29-0.53c-2.66-2.03-5.07-4.41-7.65-6.55c-2.05-1.71-4.03-3.73-6.37-4.79c-4.54-2.04-9.2-1.01-13.73,0.6
			c-0.08-0.21-0.16-0.42-0.24-0.64c1.36-0.52,2.7-1.37,4.1-1.49c3.56-0.32,6.63-1.51,9.29-4.12
			C200.66,16.38,202.08,16.01,203.86,15.08z"/>
		<path d="M152.03,22.38c-1.49-2.42-4.86-2.21-4.83-6.45c2.03,1.15,3.9,1.7,5.07,2.98c2.02,2.22,4.44,2.74,7.09,3.19
			c1.83,0.31,3.6,1.07,5.28,2c-4.48-1.21-8.96-2.1-13.41-0.46c-2.03,0.75-3.88,2.26-5.61,3.7c-2.76,2.31-5.32,4.88-8.02,7.28
			c-0.66,0.58-1.49,1.07-2.31,1.29c-0.6,0.16-1.56,0.05-1.92-0.36c-0.31-0.35-0.27-1.6,0.08-1.95c2.11-2.15,4.26-4.27,6.58-6.15
			c1.35-1.1,3.05-1.72,4.6-2.55c-0.06-0.23-0.12-0.46-0.17-0.69c-5.83,1.11-11.66,2.21-17.49,3.34c-0.55,0.11-1.07,0.57-1.59,0.55
			c-1.48-0.08-3.89,0.16-4.24-0.6c-0.91-1.99,0.98-3.18,2.49-3.89c2.62-1.23,5.28-1.2,7.76,0.62c0.37,0.28,0.82,0.7,1.21,0.67
			c3.63-0.29,7.26-0.66,10.89-1.01c0.01-0.28,0.02-0.55,0.04-0.83c-0.77-0.15-1.53-0.34-2.3-0.46c-2.62-0.41-5.26-0.67-7.84-1.26
			c-1.01-0.23-2.11-0.98-2.73-1.85c-0.97-1.34-0.48-3,1.1-2.97c2.05,0.04,4.19,0.65,6.09,1.51c2.68,1.21,5.06,3.26,7.8,4.21
			C147.56,22.93,149.88,22.38,152.03,22.38z"/>
		<path d="M177.25,21.96c1.47-1.57,2.38-2.75,3.49-3.65c0.57-0.47,1.5-0.44,2.27-0.64c0.01,0.86,0.34,1.93-0.03,2.55
			c-0.87,1.46-2.07,2.71-3.29,4.23c0.86,1.22,2.08,2.58,2.85,4.17c0.42,0.86,0.09,2.13,0.1,3.21c-0.97-0.31-2.12-0.38-2.88-0.99
			c-0.92-0.74-1.51-1.94-2.29-2.99c-0.96,1.27-1.79,2.71-2.94,3.76c-0.66,0.6-1.84,0.56-2.79,0.8c-0.18-0.99-0.77-2.16-0.45-2.93
			c0.67-1.64,1.8-3.08,2.83-4.73c-1.52-0.48-3.26-0.79-4.77-1.59c-0.79-0.42-1.18-1.69-1.75-2.58c0.94-0.17,1.98-0.68,2.81-0.44
			c1.27,0.36,2.4,1.25,3.72,1.99c0-1.98-0.14-3.87,0.06-5.72c0.09-0.82,0.85-1.56,1.3-2.34c0.58,0.71,1.55,1.35,1.67,2.14
			C177.43,17.84,177.25,19.55,177.25,21.96z"/>
		<path class="st0" d="M176.64,54.88c0.12-0.28,0.22-0.58,0.37-0.84c0.15-0.26,0.34-0.48,0.67-0.92c-9.27,0-18.29,0-26.71,0
			c0.89,0.35,2.3,0.9,3.71,1.46c-0.11-0.13-0.25-0.19-0.42-0.16c0,0,0.06,0.01,0.06,0.01c-0.25,0.11-0.5,0.22-0.75,0.32
			c-1.44,0.25-2.89,0.51-4.33,0.76c-0.11-0.16-0.22-0.32-0.34-0.48c-0.38,0.02-0.75,0.03-1.13,0.05c0.02-0.26,0.04-0.52,0.06-0.78
			l-0.03-0.09c-0.47-2.55-1.12-5.07-1.36-7.64c-0.23-2.43-0.05-4.91-0.05-7.88c1.81,0,3.98,0,6.16,0c18.78,0,37.55,0.02,56.33-0.05
			c2.11-0.01,2.67,0.87,2.55,2.88c-0.22,3.63-0.31,7.28-0.52,10.91c-0.09,1.48-0.45,2.87-2.31,2.78c0.01-0.19,0.02-0.39,0.02-0.58
			c-0.26-0.21-0.52-0.42-0.78-0.63l0.07-0.03c-0.27,0.03-0.53,0.06-0.8,0.08c-0.36-0.19-0.71-0.37-1.07-0.56
			c0,0-0.21,0.06-0.21,0.06c-0.65-0.42-1.29-1.2-1.95-1.21c-6.02-0.09-12.04-0.06-18.06-0.06c-0.01,0.21-0.01,0.41-0.02,0.62
			c0.8,0.06,1.6,0.12,2.64,0.19c-1.08,0.76-1.9,1.34-2.72,1.92c-0.11,0.2-0.22,0.39-0.33,0.59l0.09-0.1c-0.19,0.2-0.38,0.4-0.57,0.6
			l0.09-0.07c-0.22,0.05-0.44,0.1-0.66,0.14c-0.61,0.33-1.21,0.67-2.08,1.15c-0.36-1.23-0.65-2.26-0.98-3.39
			c-1.26,0.31-2.57,0.63-3.88,0.95c0,0,0.06,0,0.06,0c-0.29,0-0.58,0-0.88,0L176.64,54.88z M209.41,39.72c0-0.08,0-0.17,0-0.25
			c-5.34,0-10.67,0-16.01,0c0,0.08,0,0.17,0,0.25C198.74,39.72,204.08,39.72,209.41,39.72z"/>
		<path class="st0" d="M224.94,49.07c-0.49-0.03-1.66-0.18-2.83-0.18c-1.49,0-3,0.27-4.48,0.16c-1.61-0.13-3.45-0.15-4.71-1
			c-0.87-0.59-0.94-2.51-1.37-3.83c0.25-0.22,0.49-0.44,0.74-0.66c1.47,0.46,2.93,1.25,4.41,1.3c4.45,0.15,8.91,0.04,13.37-0.04
			c2-0.04,4-0.36,5.99-0.31c0.68,0.02,1.93,0.81,1.92,1.2c-0.04,1.05,1.11,2.65-0.8,3.17c-1.53,0.41-3.05,0.91-4.61,1.07
			c-1.96,0.2-3.95,0.14-5.93,0.08C226.2,50.02,225.79,49.57,224.94,49.07z"/>
		<path class="st0" d="M138.55,47.03c-0.45,0.98-0.21,2.2-2.24,1.27c-1.61-0.74-4.02,0.47-6.07,0.8c-0.74,0.12-1.57,0.49-2.21,0.26
			c-2.89-1-5.62-0.06-8.38,0.55c0,0-0.11,0.03-0.11,0.03c-0.57-1.78-1.15-3.56-1.93-5.99c1.52-0.26,3.16-0.87,4.73-0.73
			c3.82,0.33,7.61,1.08,11.42,1.5c1.78,0.2,3.6,0.03,5.41,0.03c-0.21,0.77-0.43,1.56-0.65,2.35L138.55,47.03z"/>
		<path class="st0" d="M138.5,47.1c1.37-1.47,2.52-3.32,4.97-3.35c0,2.13,0,3.96,0,5.96c-0.82,0.13-1.65,0.27-2.47,0.41
			c-0.16-0.07-0.31-0.14-0.47-0.21l0.07,0.07c-0.06-0.18-0.12-0.36-0.18-0.55c-0.62-0.81-1.24-1.61-1.87-2.41
			C138.55,47.03,138.5,47.1,138.5,47.1z"/>
		<path d="M158.24,54.71c2.31,0.18,4.61,0.36,6.92,0.53c0,0.29-0.01,0.58-0.01,0.87c0,0,0.06-0.08,0.06-0.09
			c-0.27,0-0.54,0.01-0.82,0.01c-2.16,0-4.32,0-6.48,0c0.01-0.25,0.02-0.5,0.04-0.76C158.05,55.1,158.14,54.91,158.24,54.71z"/>
		<path class="st0" d="M197.91,53.53c1.17-0.24,2.34-0.48,4.2-0.87c-1.37,1.73-2.14,2.89-3.11,3.81c-0.26,0.24-1.13-0.23-1.72-0.38
			c0.05-0.52,0.11-1.04,0.16-1.57c0.03-0.22,0.05-0.45,0.08-0.67C197.65,53.75,197.78,53.64,197.91,53.53z"/>
		<path class="st0" d="M192.17,56.53c-0.37,0.24-0.75,0.48-1.64,1.06c0.95-1.34,1.54-2.19,2.14-3.03c0.06-0.25,0.12-0.5,0.18-0.74
			c0.05,0.03,0.09,0.06,0.14,0.09c-0.03-0.04-0.07-0.09-0.1-0.13c-0.09,0.14-0.18,0.28-0.27,0.42c0.43-1.88,1.4-1.39,2.43-0.61
			c0,0,0.05-0.1,0.05-0.1c-0.18,0.2-0.37,0.39-0.55,0.59c0,0,0.08-0.09,0.08-0.09c-0.19,0.2-0.38,0.4-0.57,0.59l0.08-0.09
			c-0.19,0.2-0.38,0.4-0.57,0.6l0.08-0.09c-0.19,0.2-0.38,0.4-0.57,0.59l0.09-0.09c-0.19,0.2-0.38,0.4-0.57,0.6L192.7,56
			c-0.19,0.2-0.37,0.39-0.56,0.59L192.17,56.53z"/>
		<path class="st0" d="M197.91,53.53c-0.13,0.11-0.26,0.22-0.39,0.33c-0.33,0.07-0.67,0.13-1,0.2c-0.15,0-0.31,0-0.46,0
			c-0.16,0.17-0.32,0.33-0.48,0.5c-0.16,0.17-0.32,0.34-0.48,0.51c-0.16,0.17-0.32,0.34-0.48,0.51c-0.18,0.18-0.37,0.35-0.55,0.53
			l0.08-0.08c-0.18,0.18-0.37,0.36-0.55,0.54c-0.47-0.01-0.95-0.02-1.42-0.02c0,0-0.03,0.07-0.03,0.07c0.19-0.2,0.37-0.39,0.56-0.59
			c0,0-0.09,0.09-0.09,0.09c0.19-0.2,0.38-0.4,0.57-0.6c0,0-0.09,0.09-0.09,0.09c0.19-0.2,0.38-0.4,0.57-0.59
			c0,0-0.08,0.09-0.08,0.09c0.19-0.2,0.38-0.4,0.57-0.6c0,0-0.08,0.09-0.08,0.09c0.19-0.2,0.38-0.4,0.57-0.59
			c0,0-0.08,0.09-0.08,0.09c0.18-0.2,0.37-0.39,0.55-0.59c0,0-0.05,0.1-0.05,0.1C196.01,53.56,196.96,53.55,197.91,53.53z"/>
		<path class="st0" d="M205.83,53.55l0.21-0.06c0.05,0.36,0.11,0.71,0.16,1.07c-0.19,0.17-0.37,0.35-0.56,0.52
			c0,0,0.08-0.08,0.08-0.08c-0.18,0.2-0.37,0.39-0.56,0.59l0.09-0.07c-0.09,0.21-0.17,0.43-0.26,0.64
			c-0.72,0.13-1.44,0.25-2.16,0.38c0,0-0.09,0.09-0.09,0.09c0.19-0.2,0.38-0.4,0.57-0.6l-0.09,0.09c0.19-0.2,0.38-0.4,0.57-0.6
			l-0.09,0.09c0.19-0.2,0.38-0.4,0.57-0.6l-0.08,0.09c0.46-0.54,0.91-1.08,1.37-1.62C205.66,53.5,205.74,53.52,205.83,53.55z"/>
		<path class="st0" d="M202.83,56.52c-0.27,0.13-0.55,0.25-0.82,0.38c-0.1-0.09-0.21-0.18-0.31-0.27c0.85-0.89,1.71-1.77,2.56-2.66
			c-0.02,0.37-0.04,0.74-0.05,1.12c0,0,0.08-0.09,0.08-0.09c-0.19,0.2-0.38,0.4-0.57,0.6c0,0,0.09-0.09,0.09-0.09
			c-0.19,0.2-0.38,0.4-0.57,0.6c0,0,0.09-0.09,0.09-0.09c-0.19,0.2-0.38,0.4-0.57,0.6C202.75,56.61,202.83,56.52,202.83,56.52z"/>
		<path d="M196.52,54.05c0.33-0.06,0.67-0.13,1-0.2c-0.03,0.22-0.05,0.45-0.08,0.67c0,0,0.08-0.05,0.08-0.05
			c-0.19,0.2-0.38,0.4-0.57,0.6c0,0,0.09-0.09,0.09-0.09c-0.19,0.2-0.38,0.4-0.57,0.6c0,0,0.09-0.09,0.09-0.09
			c-0.19,0.2-0.38,0.4-0.57,0.6c0,0,0.06-0.08,0.06-0.08c-0.24,0.19-0.49,0.38-0.73,0.57c-0.16-0.01-0.31-0.01-0.47-0.01
			c-0.08-0.18-0.16-0.37-0.24-0.55c0,0-0.06,0.07-0.06,0.07c0.18-0.2,0.37-0.39,0.55-0.59l-0.07,0.07c0.18-0.19,0.36-0.38,0.55-0.58
			l-0.07,0.07c0.18-0.19,0.37-0.39,0.55-0.58c0,0-0.07,0.08-0.07,0.08c0.19-0.2,0.38-0.4,0.57-0.59
			C196.57,53.97,196.52,54.05,196.52,54.05z"/>
		<path class="st0" d="M185.67,54.98c1.41,1.01-0.06,1.33-0.41,1.91c-0.32-0.26-0.63-0.53-0.95-0.79c0.23-0.02,0.46-0.05,0.68-0.08
			c0,0-0.09,0.07-0.09,0.07c0.19-0.2,0.38-0.4,0.57-0.6c0,0-0.09,0.1-0.09,0.1C185.48,55.39,185.58,55.19,185.67,54.98z"/>
		<path d="M197.44,54.53c-0.05,0.52-0.11,1.04-0.16,1.57c-0.33,0.16-0.65,0.32-0.98,0.49c-0.08-0.19-0.16-0.38-0.24-0.57
			c0,0-0.06,0.08-0.06,0.08c0.19-0.2,0.38-0.4,0.57-0.6c0,0-0.09,0.09-0.09,0.09c0.19-0.2,0.38-0.4,0.57-0.6
			c0,0-0.09,0.09-0.09,0.09c0.19-0.2,0.38-0.4,0.57-0.6L197.44,54.53z"/>
		<path d="M158.24,54.71c-0.1,0.19-0.19,0.39-0.29,0.58c-0.18,0.27-0.37,0.53-0.55,0.8c0,0,0.08-0.07,0.08-0.07
			c-0.22,0.19-0.43,0.38-0.65,0.58c-0.27-0.01-0.54-0.01-0.8-0.02c0-0.19,0-0.38,0-0.57l-0.08,0.09c0.19-0.2,0.38-0.4,0.57-0.6
			l-0.07,0.09c0.18-0.2,0.37-0.39,0.55-0.59c0,0-0.1,0.08-0.1,0.08c0.27-0.19,0.54-0.39,0.81-0.58
			C157.89,54.57,158.07,54.64,158.24,54.71z"/>
		<path class="st0" d="M208.61,54.61c-0.01,0.19-0.02,0.39-0.02,0.58c-0.47,0.1-0.94,0.21-1.41,0.31c0,0-0.08,0.08-0.08,0.08
			c0.17-0.19,0.33-0.39,0.5-0.58c0.18-0.17,0.36-0.34,0.54-0.51l-0.06,0.07C208.25,54.58,208.43,54.6,208.61,54.61z"/>
		<path d="M154.67,54.58c0.3,0.12,0.61,0.24,0.91,0.36l-0.05,0.08c-0.18,0.19-0.37,0.39-0.55,0.58c0,0,0.09-0.09,0.09-0.09
			c-0.18,0.19-0.37,0.39-0.55,0.58c0,0-0.02,0.04-0.02,0.04c-0.24-0.01-0.48-0.03-0.72-0.04c-0.06-0.19-0.11-0.38-0.17-0.57
			l-0.06,0.08c0.19-0.2,0.37-0.39,0.56-0.59c0,0-0.07,0.09-0.07,0.09c0.08-0.23,0.15-0.45,0.23-0.68
			C154.42,54.39,154.56,54.44,154.67,54.58z"/>
		<path d="M155.59,54.93c0.23,0.02,0.46,0.05,0.69,0.07c0.06,0.2,0.12,0.39,0.18,0.59c0,0,0.07-0.09,0.07-0.09
			c-0.19,0.2-0.38,0.4-0.57,0.6c0,0,0.08-0.09,0.08-0.09c-0.2,0.19-0.4,0.38-0.6,0.58c-0.31-0.15-0.62-0.3-0.94-0.46
			c0,0,0.02-0.04,0.02-0.04c0.18-0.19,0.37-0.39,0.55-0.58c0,0-0.09,0.09-0.09,0.09c0.18-0.19,0.37-0.39,0.55-0.58L155.59,54.93z"/>
		<path d="M204.21,55.08c0.02-0.37,0.04-0.74,0.05-1.12c0,0-0.08,0.09-0.08,0.09c0.26-0.19,0.52-0.39,0.78-0.58
			c0.2,0,0.4-0.01,0.6-0.01C205.12,54.01,204.66,54.55,204.21,55.08z"/>
		<path d="M147.76,55.07c0.38-0.02,0.75-0.03,1.13-0.05c-0.06,0.19-0.12,0.37-0.18,0.56c0,0,0.09-0.09,0.09-0.09
			c-0.2,0.19-0.4,0.39-0.6,0.58c-0.31,0.16-0.62,0.31-0.93,0.47c0.03-0.34,0.05-0.69,0.08-1.03c0,0-0.06,0.07-0.06,0.07
			c0.18-0.19,0.37-0.39,0.55-0.58L147.76,55.07z"/>
		<path d="M176.57,54.88c0.29,0,0.58,0,0.88,0.01c0.09,0.26,0.19,0.53,0.28,0.79c-0.26,0.31-0.51,0.62-0.77,0.93
			c-0.25-0.19-0.49-0.38-0.74-0.57c0,0,0.04,0.08,0.04,0.08c0-0.2,0-0.4,0-0.6c0,0-0.02,0.09-0.02,0.09
			C176.35,55.35,176.46,55.11,176.57,54.88z"/>
		<path class="st0" d="M140.44,50.42c-0.28-0.15-0.56-0.3-0.85-0.45c0.33,0.01,0.67,0.01,1,0.02c0,0-0.07-0.07-0.07-0.07
			C140.5,50.08,140.47,50.25,140.44,50.42z"/>
		<path class="st0" d="M147.34,55.51c-0.03,0.34-0.05,0.69-0.08,1.03c-0.16-0.4-0.32-0.81-0.48-1.21
			C146.97,55.4,147.16,55.46,147.34,55.51z"/>
		<path d="M140.6,49.98c-0.33-0.01-0.67-0.01-1-0.02c0.28-0.18,0.55-0.35,0.83-0.53C140.48,49.62,140.54,49.8,140.6,49.98z"/>
		<path class="st0" d="M147.79,54.2c0,0,0.03,0.09,0.03,0.09c-0.18,0.07-0.36,0.14-0.55,0.21c0,0,0.08,0.05,0.08,0.05
			C147.5,54.43,147.64,54.32,147.79,54.2z"/>
		<path d="M192.85,53.81c-0.06,0.25-0.12,0.5-0.18,0.74c-0.01-0.12-0.03-0.24-0.05-0.36c0.09-0.14,0.18-0.28,0.27-0.42L192.85,53.81
			z"/>
		<path class="st0" d="M146.78,55.26c0.19-0.24,0.38-0.48,0.57-0.71c0,0-0.08-0.05-0.08-0.05c0.02,0.19,0.04,0.38,0.06,0.56
			C147.15,55.13,146.97,55.2,146.78,55.26z"/>
		<path d="M153.56,54.74c0.25-0.11,0.5-0.22,0.75-0.32c-0.09,0.22-0.19,0.45-0.28,0.67c0,0,0.07-0.09,0.07-0.09
			c-0.18,0-0.36,0.01-0.54,0.01l-0.06-0.05L153.56,54.74z"/>
		<path class="st0" d="M157.72,54.5c-0.27,0.19-0.54,0.39-0.81,0.58C157.18,54.89,157.45,54.7,157.72,54.5z"/>
		<path class="st0" d="M119.53,49.94c0,0,0.11-0.03,0.11-0.03c-0.01,0.12-0.02,0.24-0.03,0.35
			C119.58,50.15,119.55,50.04,119.53,49.94z"/>
		<path class="st0" d="M148.72,55.58c0.06-0.19,0.12-0.37,0.18-0.56c0.11,0.16,0.22,0.32,0.34,0.48
			C149.06,55.53,148.89,55.55,148.72,55.58z"/>
		<path d="M153.08,55.25c0.14-0.1,0.28-0.19,0.42-0.29c0,0,0.06,0.05,0.06,0.05c0,0.19-0.01,0.39-0.01,0.58c0,0,0.06-0.08,0.06-0.08
			C153.43,55.43,153.26,55.34,153.08,55.25z"/>
		<path d="M140.44,50.42c0.03-0.17,0.06-0.34,0.09-0.51c0.16,0.07,0.31,0.14,0.47,0.21C140.81,50.22,140.63,50.32,140.44,50.42z"/>
		<path class="st0" d="M156.45,55.59c-0.06-0.2-0.12-0.39-0.18-0.59c0.24,0,0.49,0,0.73,0C156.82,55.2,156.64,55.39,156.45,55.59z"
			/>
		<path class="st0" d="M176.57,54.88c-0.11,0.24-0.23,0.47-0.34,0.71c0.13-0.23,0.26-0.47,0.4-0.7
			C176.64,54.88,176.57,54.88,176.57,54.88z"/>
		<path class="st0" d="M177.73,55.67c-0.09-0.26-0.18-0.52-0.28-0.79c0,0-0.06,0-0.06,0C177.5,55.15,177.62,55.41,177.73,55.67z"/>
		<path d="M185.67,54.98c-0.1,0.2-0.19,0.41-0.29,0.61c0.11-0.2,0.22-0.39,0.33-0.59C185.72,55.01,185.67,54.98,185.67,54.98z"/>
		<path d="M146.78,55.26c0.19-0.07,0.37-0.13,0.56-0.2L147.28,55c0,0.19,0,0.39,0,0.58c0,0,0.06-0.07,0.06-0.07
			c-0.19-0.06-0.37-0.12-0.56-0.18C146.78,55.34,146.78,55.26,146.78,55.26z"/>
		<path class="st0" d="M206.19,55.55c-0.17-0.02-0.34-0.03-0.51-0.05c0,0,0.03,0.08,0.03,0.08c0-0.2,0-0.4,0-0.59
			c0,0-0.08,0.08-0.08,0.08c0.18-0.02,0.37-0.04,0.55-0.06C206.19,55.19,206.19,55.37,206.19,55.55z"/>
		<path d="M206.19,55.55c0-0.18,0-0.36,0-0.54l-0.05,0.06c0.18-0.02,0.37-0.04,0.55-0.06c-0.01,0.18-0.02,0.35-0.03,0.53
			C206.51,55.54,206.35,55.55,206.19,55.55z"/>
		<path class="st0" d="M206.67,55.54c0.01-0.18,0.02-0.35,0.03-0.53c0,0-0.08,0.07-0.08,0.07c0.18-0.03,0.37-0.05,0.55-0.08
			c-0.02,0.2-0.05,0.39-0.07,0.59c0,0,0.08-0.08,0.08-0.08C207.01,55.52,206.84,55.53,206.67,55.54z"/>
		<path class="st0" d="M148.2,56.08c0.2-0.19,0.4-0.39,0.6-0.58C148.6,55.69,148.4,55.88,148.2,56.08z"/>
		<path class="st0" d="M157.4,56.09c0.18-0.27,0.37-0.53,0.55-0.8c-0.01,0.25-0.02,0.5-0.04,0.76
			C157.74,56.06,157.57,56.08,157.4,56.09z"/>
		<path class="st0" d="M165.15,56.12c0-0.29,0.01-0.58,0.01-0.87C165.16,55.54,165.15,55.83,165.15,56.12z"/>
		<path class="st0" d="M176.26,55.5c0,0.2,0,0.4,0,0.6C176.26,55.9,176.26,55.7,176.26,55.5z"/>
		<path d="M204.99,56.14c0.09-0.21,0.17-0.43,0.26-0.64c-0.11,0.19-0.21,0.39-0.32,0.58L204.99,56.14z"/>
		<path class="st0" d="M153.08,55.25c0.18,0.09,0.35,0.17,0.53,0.26c0.06,0.19,0.11,0.38,0.17,0.57c-0.23-0.01-0.45-0.03-0.68-0.04
			c0,0,0.04,0.05,0.04,0.05C153.12,55.82,153.1,55.54,153.08,55.25z"/>
		<path class="st0" d="M153.1,56.05c-0.07,0.12-0.15,0.25-0.22,0.37c0.09-0.11,0.18-0.22,0.27-0.32
			C153.14,56.1,153.1,56.05,153.1,56.05z"/>
		<path class="st0" d="M155.43,56.59c0.2-0.19,0.4-0.38,0.6-0.58c0,0.19,0,0.38,0,0.57C155.83,56.58,155.63,56.58,155.43,56.59z"/>
		<path class="st0" d="M156.83,56.6c0.22-0.19,0.43-0.38,0.65-0.58C157.27,56.21,157.05,56.4,156.83,56.6z"/>
		<path class="st0" d="M164.4,56.05c0.27,0,0.54-0.01,0.82-0.01C164.94,56.04,164.67,56.04,164.4,56.05z"/>
		<path class="st0" d="M176.22,56.02c0.25,0.19,0.49,0.38,0.74,0.57C176.71,56.41,176.46,56.22,176.22,56.02z"/>
		<path class="st0" d="M204.97,53.47c-0.26,0.19-0.52,0.39-0.78,0.58C204.45,53.86,204.71,53.67,204.97,53.47z"/>
		<path d="M185,56.03c-0.23,0.03-0.45,0.05-0.68,0.08c0,0,0.03,0.07,0.02,0.07C184.56,56.13,184.78,56.08,185,56.03z"/>
		<path d="M193.59,56.55c0.18-0.18,0.37-0.36,0.55-0.54c-0.04,0.19-0.07,0.38-0.11,0.57C193.88,56.57,193.74,56.56,193.59,56.55z"/>
		<path class="st0" d="M194.03,56.58c0.04-0.19,0.07-0.38,0.11-0.57c0,0-0.08,0.08-0.08,0.08c0.19-0.02,0.37-0.04,0.55-0.07
			c0.08,0.18,0.16,0.37,0.24,0.55C194.59,56.58,194.31,56.58,194.03,56.58z"/>
		<path class="st0" d="M196.06,56.01c0.08,0.19,0.16,0.38,0.24,0.57c-0.32,0-0.65,0-0.97,0.01C195.58,56.4,195.82,56.2,196.06,56.01
			z"/>
		<path class="st0" d="M204.93,56.08c0.11-0.19,0.21-0.39,0.32-0.58c0,0-0.09,0.07-0.09,0.07c0.19,0,0.37,0,0.56,0
			c0,0-0.03-0.08-0.03-0.08C205.43,55.7,205.18,55.89,204.93,56.08z"/>
		<path d="M209.41,39.72c-5.34,0-10.67,0-16.01,0c0-0.08,0-0.17,0-0.25c5.34,0,10.67,0,16.01,0
			C209.41,39.56,209.41,39.64,209.41,39.72z"/>
		<path d="M206.2,54.55c-0.05-0.36-0.11-0.71-0.16-1.07c0.36,0.19,0.71,0.37,1.07,0.56c0,0,0.05-0.07,0.05-0.07
			c-0.18,0.19-0.36,0.38-0.54,0.57l0.06-0.05c-0.18,0-0.36,0-0.54,0L206.2,54.55z"/>
		<path d="M207.1,54.04c0.27-0.03,0.53-0.06,0.8-0.08c-0.1,0.2-0.21,0.4-0.31,0.6c0,0,0.06-0.06,0.06-0.06c-0.18,0-0.36,0-0.54,0
			l0.06,0.06c0-0.19-0.01-0.39-0.01-0.58L207.1,54.04z"/>
		<path class="st0" d="M207.59,54.56c0.1-0.2,0.21-0.4,0.31-0.6c0,0-0.07,0.03-0.07,0.03c0.08,0.19,0.16,0.39,0.24,0.58
			c0,0,0.06-0.07,0.06-0.07C207.95,54.52,207.77,54.54,207.59,54.56z"/>
		<path d="M208.07,54.56c-0.08-0.19-0.16-0.39-0.24-0.58c0.26,0.21,0.52,0.42,0.78,0.63C208.43,54.6,208.25,54.58,208.07,54.56z"/>
		<path d="M147.34,55.06c-0.02-0.19-0.04-0.38-0.06-0.56c0.18-0.07,0.36-0.14,0.55-0.21c-0.02,0.26-0.04,0.52-0.06,0.78
			c0,0,0.07-0.07,0.07-0.07c-0.18,0-0.37,0-0.55,0L147.34,55.06z"/>
		<path class="st0" d="M154.03,55.09c0.09-0.22,0.19-0.45,0.28-0.67c0,0-0.06-0.01-0.06-0.01
			C154.18,54.64,154.11,54.86,154.03,55.09z"/>
		<path d="M185.47,55.5c-0.19,0.2-0.38,0.4-0.57,0.6C185.09,55.9,185.28,55.7,185.47,55.5z"/>
		<path d="M194.64,53.98c-0.19,0.2-0.38,0.4-0.57,0.59C194.26,54.38,194.45,54.18,194.64,53.98z"/>
		<path d="M194.16,54.49c-0.19,0.2-0.38,0.4-0.57,0.6C193.77,54.88,193.96,54.69,194.16,54.49z"/>
		<path d="M192.9,53.77c0.03,0.04,0.07,0.09,0.1,0.13c-0.05-0.03-0.09-0.06-0.14-0.09C192.85,53.81,192.9,53.77,192.9,53.77z"/>
		<path d="M193.67,54.99c-0.19,0.2-0.38,0.4-0.57,0.59C193.29,55.39,193.48,55.19,193.67,54.99z"/>
		<path d="M195.11,53.48c-0.18,0.2-0.37,0.39-0.55,0.59C194.74,53.87,194.93,53.67,195.11,53.48z"/>
		<path d="M193.18,55.49c-0.19,0.2-0.38,0.4-0.57,0.6C192.8,55.89,192.99,55.69,193.18,55.49z"/>
		<path d="M192.7,56c-0.19,0.2-0.37,0.39-0.56,0.59C192.33,56.4,192.51,56.2,192.7,56z"/>
		<path d="M195.58,54.55c0.16-0.17,0.32-0.33,0.48-0.5l-0.05-0.06c0,0.19-0.01,0.38-0.01,0.58c0,0,0.07-0.08,0.07-0.08
			c-0.18,0-0.36,0.01-0.54,0.01C195.53,54.5,195.58,54.55,195.58,54.55z"/>
		<path d="M195.1,55.06c0.16-0.17,0.32-0.34,0.48-0.51c0,0-0.04-0.05-0.04-0.05c0,0.19-0.01,0.38-0.01,0.57c0,0,0.07-0.07,0.07-0.07
			c-0.18,0-0.36,0-0.54,0C195.05,55,195.1,55.06,195.1,55.06z"/>
		<path d="M194.62,55.57c0.16-0.17,0.32-0.34,0.48-0.51c0,0-0.05-0.05-0.05-0.05c0,0.19,0,0.38,0,0.57c0,0,0.07-0.07,0.07-0.07
			c-0.18,0-0.36,0-0.55,0L194.62,55.57z"/>
		<path d="M196.06,54.05c0.15,0,0.31,0,0.46,0c0,0,0.05-0.08,0.05-0.08c-0.19,0.01-0.37,0.01-0.56,0.02L196.06,54.05z"/>
		<path d="M194.62,56.03c-0.18,0.02-0.37,0.04-0.55,0.07c0.18-0.18,0.37-0.35,0.55-0.53c0,0-0.05-0.05-0.05-0.05
			c0,0.19,0,0.39-0.01,0.58L194.62,56.03z"/>
		<path d="M206.19,55.01c-0.18,0.02-0.37,0.04-0.55,0.06c0.19-0.17,0.37-0.35,0.56-0.52c0,0-0.06-0.05-0.06-0.05
			c0,0.19,0,0.38,0.01,0.57L206.19,55.01z"/>
		<path d="M203.72,55.6c0.19-0.2,0.38-0.4,0.57-0.6C204.1,55.2,203.91,55.4,203.72,55.6z"/>
		<path d="M205.72,55.58c-0.19,0-0.37,0-0.56,0c0.18-0.2,0.37-0.39,0.56-0.59C205.72,55.18,205.72,55.38,205.72,55.58z"/>
		<path d="M203.23,56.1c0.19-0.2,0.38-0.4,0.57-0.6C203.62,55.7,203.42,55.9,203.23,56.1z"/>
		<path d="M202.75,56.61c0.19-0.2,0.38-0.4,0.57-0.6C203.13,56.21,202.94,56.41,202.75,56.61z"/>
		<path class="st0" d="M196.01,53.99c0.19-0.01,0.37-0.01,0.56-0.02c-0.19,0.2-0.38,0.4-0.57,0.59
			C196,54.37,196.01,54.18,196.01,53.99z"/>
		<path class="st0" d="M195.52,55.07c0-0.19,0.01-0.38,0.01-0.57c0.18,0,0.36-0.01,0.54-0.01
			C195.89,54.68,195.71,54.88,195.52,55.07z"/>
		<path class="st0" d="M197.52,54.48c-0.19,0.2-0.38,0.4-0.57,0.6C197.15,54.88,197.34,54.68,197.52,54.48z"/>
		<path class="st0" d="M195.04,55.58c0-0.19,0-0.38,0-0.57c0.18,0,0.36,0,0.54,0C195.41,55.19,195.22,55.39,195.04,55.58z"/>
		<path class="st0" d="M197.04,54.99c-0.19,0.2-0.38,0.4-0.57,0.6C196.67,55.39,196.85,55.19,197.04,54.99z"/>
		<path class="st0" d="M194.56,56.1c0-0.19,0-0.39,0.01-0.58c0.18,0,0.36,0,0.55,0C194.93,55.71,194.74,55.9,194.56,56.1z"/>
		<path class="st0" d="M196.56,55.5c-0.19,0.2-0.38,0.4-0.57,0.6C196.19,55.9,196.37,55.7,196.56,55.5z"/>
		<path class="st0" d="M155.95,56.1c0.19-0.2,0.38-0.4,0.57-0.6C156.33,55.7,156.14,55.9,155.95,56.1z"/>
		<path d="M207.59,54.56c0.18-0.02,0.36-0.04,0.55-0.06c-0.18,0.17-0.36,0.34-0.54,0.51c0,0,0.05,0.06,0.05,0.06
			c0-0.19,0-0.38,0-0.57C207.65,54.49,207.59,54.56,207.59,54.56z"/>
		<path d="M207.09,55.59c0.02-0.2,0.05-0.39,0.07-0.59c0,0-0.06,0.07-0.06,0.07c0.18,0,0.36,0,0.54,0c0,0-0.05-0.06-0.05-0.06
			C207.43,55.2,207.26,55.39,207.09,55.59z"/>
		<path class="st0" d="M153.55,55.59c0-0.19,0.01-0.39,0.01-0.58c0.18,0,0.36-0.01,0.54-0.01C153.92,55.2,153.73,55.4,153.55,55.59z
			"/>
		<path class="st0" d="M155.53,55.01c-0.18,0.19-0.37,0.39-0.55,0.58C155.17,55.4,155.35,55.2,155.53,55.01z"/>
		<path class="st0" d="M155.07,55.5c-0.18,0.19-0.37,0.39-0.55,0.58C154.7,55.89,154.89,55.69,155.07,55.5z"/>
		<path class="st0" d="M147.28,55c0.18,0,0.37,0,0.55,0c-0.18,0.19-0.37,0.39-0.55,0.58C147.28,55.39,147.28,55.2,147.28,55z"/>
		<path class="st0" d="M206.15,55.06c0-0.19,0-0.38-0.01-0.57c0.18,0,0.36,0,0.54,0c-0.02,0.19-0.04,0.39-0.06,0.58
			c0,0,0.08-0.07,0.08-0.07C206.51,55.03,206.33,55.05,206.15,55.06z"/>
		<path d="M206.62,55.08c0.02-0.19,0.04-0.39,0.06-0.58c0,0-0.06,0.05-0.06,0.05c0.18,0,0.37,0.01,0.55,0.01
			c0,0-0.06-0.06-0.06-0.06c0,0.19,0,0.38,0,0.57c0,0,0.06-0.07,0.06-0.07C206.98,55.03,206.8,55.05,206.62,55.08z"/>
		<path class="st0" d="M207.16,54.56c-0.18,0-0.37-0.01-0.55-0.01c0.18-0.19,0.36-0.38,0.54-0.57
			C207.16,54.17,207.16,54.36,207.16,54.56z"/>
		<path class="st0" d="M207.1,55.07c0-0.19,0-0.38,0-0.57c0.18,0,0.36,0,0.54,0c0,0.19,0,0.38,0,0.57
			C207.46,55.06,207.28,55.07,207.1,55.07z"/>
	</g>
</g>
<polygon class="st1" points="293.74,113.09 31.18,113.09 31.26,74.99 293.82,74.99 "/>
<text transform="matrix(1 0 0 1 99.5866 85.8882)" class="st2 st3">Breads and Buns</text>
</svg>
